<svg width="290" height="290" viewBox="0 0 290 290" fill="none" xmlns="http://www.w3.org/2000/svg">
<g filter="url(#filter0_d_29_2)">
<circle cx="145" cy="142" r="117" fill="url(#paint0_linear_29_2)"/>
<circle cx="145" cy="142" r="114.5" stroke="url(#paint1_linear_29_2)" stroke-width="5"/>
</g>
<g clip-path="url(#clip0_29_2)">
<path d="M227.259 126.142C223.792 121.598 218.526 118.993 212.811 118.993H97.1406C99.3428 115.546 101.397 110.96 101.397 105.833C101.397 95.0159 92.2538 86.5938 91.865 86.2407C90.5054 85.0069 88.4315 85.0069 87.0725 86.2407C86.6834 86.5941 77.5408 95.0159 77.5408 105.833C77.5408 107.901 77.8771 109.882 78.4207 111.736C76.5668 111.192 74.5866 110.856 72.5172 110.856C61.7003 110.856 53.2785 119.999 52.9251 120.388C51.6913 121.747 51.6913 123.821 52.9251 125.181C53.2785 125.57 61.7003 134.713 72.5172 134.713C78.0652 134.713 82.979 132.308 86.5013 129.912C88.6818 151.715 100.48 171.471 118.999 183.76C124.105 187.149 129.591 189.87 135.346 191.878C133.066 198.021 133.307 203.921 133.324 204.28C133.413 206.113 134.88 207.579 136.713 207.668C136.783 207.672 137.067 207.684 137.525 207.684C140.483 207.684 150.684 207.178 157.307 200.555C158.714 199.148 159.843 197.579 160.751 195.953C189.445 195.481 215.286 178.314 226.819 151.947C228.232 148.718 229.417 145.366 230.343 141.985C231.854 136.466 230.73 130.691 227.259 126.142ZM72.5162 127.582C67.823 127.582 63.5085 124.882 60.8703 122.79C63.5179 120.697 67.8464 117.988 72.5162 117.988C77.2083 117.988 81.5221 120.687 84.1617 122.779C81.5148 124.873 77.1859 127.582 72.5162 127.582ZM84.6711 105.833C84.6711 101.135 87.3753 96.8181 89.4681 94.181C91.5619 96.8199 94.2654 101.137 94.2654 105.833C94.2654 110.529 91.5622 114.846 89.4681 117.485C87.3743 114.846 84.6711 110.53 84.6711 105.833ZM152.264 195.513C148.943 198.834 143.979 199.975 140.632 200.36C141.018 197.014 142.159 192.05 145.48 188.729C148.801 185.408 153.767 184.267 157.111 183.881C156.726 187.228 155.585 192.192 152.264 195.513ZM163.495 188.708C164.588 184.061 164.433 180.248 164.42 179.962C164.331 178.128 162.864 176.662 161.031 176.573C160.506 176.547 148.086 176.037 140.437 183.686C139.849 184.274 139.314 184.893 138.819 185.53C134.637 184.154 130.604 182.363 126.774 180.18C154.556 154.776 186.552 153.376 195.976 153.578C199.789 153.661 202.95 153.699 205.925 153.699H218.055C207.223 174.041 186.547 187.334 163.495 188.708ZM223.464 140.103C222.868 142.281 222.152 144.446 221.327 146.568H205.925C203.003 146.568 199.891 146.53 196.13 146.448C185.864 146.227 150.633 147.771 120.591 176.186C104.385 164.409 94.4196 146.07 93.3547 126.125H212.811C216.284 126.125 219.483 127.708 221.59 130.468C223.701 133.234 224.383 136.746 223.464 140.103Z" fill="white"/>
<path d="M199.182 129C196.876 129 195 130.876 195 133.183C195 135.489 196.876 137.365 199.182 137.365C201.488 137.365 203.365 135.489 203.365 133.183C203.365 130.876 201.488 129 199.182 129Z" fill="white"/>
<path d="M143.994 129.028H104.058C102.089 129.028 100.492 130.625 100.492 132.594C100.492 134.563 102.089 136.16 104.058 136.16H143.994C145.963 136.16 147.559 134.563 147.559 132.594C147.559 130.625 145.963 129.028 143.994 129.028Z" fill="#34F899"/>
<path d="M155.761 129.028H155.047C153.078 129.028 151.482 130.625 151.482 132.594C151.482 134.563 153.078 136.16 155.047 136.16H155.761C157.73 136.16 159.326 134.563 159.326 132.594C159.326 130.625 157.73 129.028 155.761 129.028Z" fill="#34F899"/>
</g>
<defs>
<filter id="filter0_d_29_2" x="-0.000488281" y="6.10352e-05" width="290" height="290" filterUnits="userSpaceOnUse" color-interpolation-filters="sRGB">
<feFlood flood-opacity="0" result="BackgroundImageFix"/>
<feColorMatrix in="SourceAlpha" type="matrix" values="0 0 0 0 0 0 0 0 0 0 0 0 0 0 0 0 0 0 127 0" result="hardAlpha"/>
<feMorphology radius="10" operator="dilate" in="SourceAlpha" result="effect1_dropShadow_29_2"/>
<feOffset dy="3"/>
<feGaussianBlur stdDeviation="9"/>
<feComposite in2="hardAlpha" operator="out"/>
<feColorMatrix type="matrix" values="0 0 0 0 0.151667 0 0 0 0 0 0 0 0 0 0.758333 0 0 0 0.13 0"/>
<feBlend mode="normal" in2="BackgroundImageFix" result="effect1_dropShadow_29_2"/>
<feBlend mode="normal" in="SourceGraphic" in2="effect1_dropShadow_29_2" result="shape"/>
</filter>
<linearGradient id="paint0_linear_29_2" x1="171" y1="25" x2="161" y2="313.5" gradientUnits="userSpaceOnUse">
<stop stop-color="#041236"/>
<stop offset="1" stop-color="#092819"/>
</linearGradient>
<linearGradient id="paint1_linear_29_2" x1="145" y1="25.0001" x2="145" y2="259" gradientUnits="userSpaceOnUse">
<stop/>
<stop offset="0.583333" stop-color="#34F899" stop-opacity="0.25"/>
<stop offset="0.9999" stop-color="#4200FF" stop-opacity="0"/>
</linearGradient>
<clipPath id="clip0_29_2">
<rect width="179" height="179" fill="white" transform="translate(51.9998 57)"/>
</clipPath>
</defs>
</svg>
