<svg width="464" height="460" viewBox="0 0 464 460" fill="none" xmlns="http://www.w3.org/2000/svg">
<circle cx="232" cy="230" r="114.5" stroke="url(#paint0_linear_29_2)" stroke-width="5"/>
<g clip-path="url(#clip0_29_2)">
<ellipse cx="177" cy="193.5" rx="9" ry="14.5" fill="#0085FF"/>
<path d="M173.622 209.01C173.622 212.945 163.494 216.134 157.592 216.134C151.69 216.134 146.906 212.945 146.906 209.01C146.906 205.075 151.69 201.886 157.592 201.886C163.494 201.886 173.622 205.075 173.622 209.01Z" fill="#34F899"/>
<path d="M313.259 213.142C309.792 208.599 304.527 205.993 298.811 205.993H183.141C185.343 202.546 187.397 197.96 187.397 192.833C187.397 182.016 178.254 173.594 177.865 173.241C176.506 172.007 174.432 172.007 173.073 173.241C172.684 173.594 163.541 182.016 163.541 192.833C163.541 194.901 163.877 196.882 164.421 198.736C162.567 198.192 160.587 197.856 158.517 197.856C147.701 197.856 139.279 206.999 138.925 207.388C137.692 208.747 137.692 210.821 138.925 212.181C139.279 212.57 147.701 221.713 158.517 221.713C164.065 221.713 168.979 219.308 172.502 216.912C174.682 238.715 186.48 258.471 204.999 270.76C210.105 274.149 215.591 276.87 221.346 278.879C219.066 285.021 219.307 290.921 219.324 291.28C219.413 293.113 220.88 294.58 222.713 294.668C222.784 294.672 223.068 294.684 223.525 294.684C226.483 294.684 236.684 294.178 243.307 287.555C244.715 286.148 245.843 284.579 246.752 282.953C275.445 282.481 301.287 265.314 312.82 238.947C314.232 235.718 315.417 232.366 316.343 228.985C317.854 223.466 316.73 217.691 313.259 213.142ZM158.516 214.582C153.823 214.582 149.509 211.882 146.871 209.79C149.518 207.697 153.847 204.988 158.516 204.988C163.209 204.988 167.522 207.687 170.162 209.779C167.515 211.873 163.186 214.582 158.516 214.582ZM170.671 192.833C170.671 188.135 173.376 183.818 175.468 181.181C177.562 183.82 180.266 188.137 180.266 192.833C180.266 197.53 177.562 201.846 175.468 204.485C173.375 201.846 170.671 197.53 170.671 192.833ZM238.264 282.513C234.943 285.834 229.979 286.975 226.633 287.36C227.018 284.014 228.159 279.05 231.48 275.729C234.802 272.408 239.767 271.267 243.112 270.881C242.726 274.228 241.585 279.192 238.264 282.513ZM249.495 275.708C250.588 271.061 250.433 267.248 250.42 266.962C250.331 265.128 248.864 263.662 247.031 263.573C246.507 263.547 234.086 263.037 226.437 270.686C225.849 271.274 225.315 271.893 224.82 272.53C220.637 271.154 216.604 269.364 212.775 267.18C240.556 241.776 272.552 240.376 281.976 240.578C285.789 240.661 288.951 240.699 291.925 240.699H304.055C293.224 261.041 272.548 274.334 249.495 275.708ZM309.464 227.103C308.868 229.281 308.152 231.446 307.327 233.568H291.925C289.003 233.568 285.891 233.53 282.131 233.448C271.864 233.227 236.633 234.771 206.591 263.186C190.385 251.409 180.42 233.071 179.355 213.125H298.811C302.284 213.125 305.483 214.708 307.59 217.468C309.701 220.234 310.384 223.746 309.464 227.103Z" fill="white"/>
<path d="M285.183 216C282.876 216 281 217.876 281 220.183C281 222.489 282.876 224.365 285.183 224.365C287.489 224.365 289.365 222.489 289.365 220.183C289.365 217.876 287.489 216 285.183 216Z" fill="white"/>
<path d="M229.994 216.028H190.058C188.089 216.028 186.493 217.625 186.493 219.594C186.493 221.563 188.089 223.16 190.058 223.16H229.994C231.963 223.16 233.56 221.563 233.56 219.594C233.56 217.625 231.963 216.028 229.994 216.028Z" fill="white"/>
<path d="M241.761 216.028H241.048C239.079 216.028 237.482 217.625 237.482 219.594C237.482 221.563 239.079 223.16 241.048 223.16H241.761C243.73 223.16 245.326 221.563 245.326 219.594C245.326 217.625 243.73 216.028 241.761 216.028Z" fill="white"/>
</g>
<defs>
<linearGradient id="paint0_linear_29_2" x1="232" y1="113" x2="232" y2="347" gradientUnits="userSpaceOnUse">
<stop stop-color="#4200FF"/>
<stop offset="0.5"/>
<stop offset="1" stop-color="#34F899"/>
</linearGradient>
<clipPath id="clip0_29_2">
<rect width="179" height="179" fill="white" transform="translate(138 144)"/>
</clipPath>
</defs>
</svg>
