<svg width="640" height="411" viewBox="0 0 640 411" fill="none" xmlns="http://www.w3.org/2000/svg">
<path d="M101.5 316C96.2616 316 92 320.262 92 325.5C92 330.738 96.2616 335 101.5 335C106.738 335 111 330.738 111 325.5C111 320.262 106.738 316 101.5 316ZM101.5 333.724C96.9653 333.724 93.2761 330.035 93.2761 325.5C93.2761 320.965 96.9653 317.276 101.5 317.276C106.035 317.276 109.724 320.965 109.724 325.5C109.724 330.035 106.035 333.724 101.5 333.724Z" fill="white" fill-opacity="0.2"/>
<path d="M399.274 390C393.609 390 389 394.609 389 400.274C389 405.939 393.609 410.547 399.274 410.547C404.939 410.547 409.547 405.938 409.547 400.274C409.547 394.609 404.939 390 399.274 390ZM399.274 408.171C394.919 408.171 391.376 404.628 391.376 400.274C391.376 395.919 394.919 392.376 399.274 392.376C403.628 392.376 407.171 395.919 407.171 400.274C407.171 404.628 403.628 408.171 399.274 408.171Z" fill="white" fill-opacity="0.2"/>
<path d="M399.856 403.954C397.506 403.954 395.593 402.042 395.593 399.691C395.593 399.035 395.061 398.503 394.405 398.503C393.749 398.503 393.217 399.035 393.217 399.691C393.217 403.352 396.195 406.33 399.856 406.33C400.513 406.33 401.045 405.799 401.045 405.142C401.045 404.486 400.513 403.954 399.856 403.954Z" fill="white" fill-opacity="0.2"/>
<path d="M382.051 388.102C385.939 388.102 389.102 384.939 389.102 381.051C389.102 377.163 385.939 374 382.051 374C378.163 374 375 377.163 375 381.051C375 384.939 378.163 388.102 382.051 388.102ZM382.051 376.376C384.629 376.376 386.726 378.473 386.726 381.051C386.726 383.629 384.629 385.726 382.051 385.726C379.473 385.726 377.376 383.629 377.376 381.051C377.376 378.473 379.473 376.376 382.051 376.376Z" fill="white" fill-opacity="0.2"/>
<path d="M170.696 358C168.658 358 167 359.658 167 361.696C167 363.734 168.658 365.392 170.696 365.392C172.734 365.392 174.392 363.734 174.392 361.696C174.392 359.658 172.734 358 170.696 358ZM170.696 364.896C168.932 364.896 167.496 363.46 167.496 361.696C167.496 359.932 168.932 358.496 170.696 358.496C172.46 358.496 173.896 359.932 173.896 361.696C173.896 363.46 172.46 364.896 170.696 364.896Z" fill="white" fill-opacity="0.2"/>
<path d="M286.55 386.791C284.346 386.791 282.553 388.584 282.553 390.788C282.553 392.992 284.346 394.785 286.55 394.785C288.754 394.785 290.547 392.992 290.547 390.788C290.547 388.584 288.754 386.791 286.55 386.791ZM286.55 393.861C284.856 393.861 283.477 392.482 283.477 390.788C283.477 389.094 284.856 387.716 286.55 387.716C288.244 387.716 289.623 389.094 289.623 390.788C289.623 392.482 288.244 393.861 286.55 393.861Z" fill="white" fill-opacity="0.2"/>
<path d="M286.777 392.22C285.862 392.22 285.118 391.476 285.118 390.561C285.118 390.306 284.911 390.099 284.656 390.099C284.401 390.099 284.194 390.306 284.194 390.561C284.194 391.986 285.353 393.145 286.777 393.145C287.032 393.145 287.239 392.938 287.239 392.682C287.239 392.427 287.032 392.22 286.777 392.22Z" fill="white" fill-opacity="0.2"/>
<path d="M279.849 386.053C281.362 386.053 282.593 384.822 282.593 383.309C282.593 381.797 281.362 380.566 279.849 380.566C278.337 380.566 277.106 381.797 277.106 383.309C277.106 384.822 278.337 386.053 279.849 386.053ZM279.849 381.49C280.852 381.49 281.668 382.306 281.668 383.309C281.668 384.312 280.852 385.128 279.849 385.128C278.847 385.128 278.031 384.312 278.031 383.309C278.031 382.306 278.847 381.49 279.849 381.49Z" fill="white" fill-opacity="0.2"/>
<path d="M423.696 138C421.658 138 420 139.658 420 141.696C420 143.734 421.658 145.392 423.696 145.392C425.734 145.392 427.392 143.734 427.392 141.696C427.392 139.658 425.734 138 423.696 138ZM423.696 144.896C421.932 144.896 420.496 143.46 420.496 141.696C420.496 139.932 421.932 138.496 423.696 138.496C425.46 138.496 426.896 139.932 426.896 141.696C426.896 143.46 425.46 144.896 423.696 144.896Z" fill="white" fill-opacity="0.1"/>
<path d="M539.55 166.791C537.346 166.791 535.553 168.584 535.553 170.788C535.553 172.992 537.346 174.785 539.55 174.785C541.754 174.785 543.547 172.992 543.547 170.788C543.547 168.584 541.754 166.791 539.55 166.791ZM539.55 173.861C537.856 173.861 536.477 172.482 536.477 170.788C536.477 169.094 537.856 167.715 539.55 167.715C541.244 167.715 542.623 169.094 542.623 170.788C542.623 172.482 541.244 173.861 539.55 173.861Z" fill="white" fill-opacity="0.1"/>
<path d="M539.777 172.22C538.862 172.22 538.118 171.476 538.118 170.561C538.118 170.306 537.911 170.099 537.656 170.099C537.401 170.099 537.194 170.306 537.194 170.561C537.194 171.986 538.353 173.145 539.777 173.145C540.032 173.145 540.239 172.938 540.239 172.682C540.239 172.427 540.032 172.22 539.777 172.22Z" fill="white" fill-opacity="0.1"/>
<path d="M532.849 166.053C534.362 166.053 535.593 164.822 535.593 163.309C535.593 161.797 534.362 160.566 532.849 160.566C531.337 160.566 530.106 161.797 530.106 163.309C530.106 164.822 531.337 166.053 532.849 166.053ZM532.849 161.49C533.852 161.49 534.668 162.306 534.668 163.309C534.668 164.312 533.852 165.128 532.849 165.128C531.846 165.128 531.031 164.312 531.031 163.309C531.031 162.306 531.846 161.49 532.849 161.49Z" fill="white" fill-opacity="0.1"/>
<path d="M609.761 102.195C613.016 108.732 620.982 111.402 627.519 108.147C634.056 104.893 636.727 96.9264 633.472 90.3893C630.217 83.8522 622.251 81.182 615.714 84.4367C609.177 87.6914 606.507 95.6576 609.761 102.195ZM631.879 91.1822C634.697 96.8412 632.385 103.737 626.726 106.555C621.067 109.372 614.171 107.061 611.354 101.402C608.536 95.7427 610.848 88.8467 616.507 86.0292C622.166 83.2117 629.062 85.5233 631.879 91.1822Z" fill="white" fill-opacity="0.8"/>
<path d="M620.771 91.0455C620.293 91.1581 619.997 91.637 620.109 92.1153C620.222 92.5935 620.701 92.8897 621.179 92.777C624.68 91.952 628.199 94.129 629.024 97.6298C629.137 98.1081 629.616 98.4043 630.094 98.2916C630.572 98.1789 630.868 97.7 630.756 97.2218C629.706 92.7662 625.227 89.9955 620.771 91.0455Z" fill="white" fill-opacity="0.8"/>
<path d="M593.261 85.6795C595.152 89.4761 599.778 91.027 603.575 89.1367C607.372 87.2463 608.922 82.6197 607.032 78.8231C605.142 75.0265 600.515 73.4756 596.719 75.3658C592.922 77.2561 591.371 81.8827 593.261 85.6795ZM605.44 79.6159C606.893 82.5344 605.701 86.091 602.782 87.5441C599.864 88.9972 596.307 87.805 594.854 84.8865C593.401 81.968 594.593 78.4114 597.512 76.9583C600.43 75.5052 603.987 76.6973 605.44 79.6159Z" fill="white" fill-opacity="0.8"/>
<path d="M602.419 80.6324C603.204 82.2079 602.56 84.1279 600.985 84.9123C600.545 85.1313 600.366 85.6653 600.585 86.105C600.804 86.5447 601.338 86.7238 601.777 86.5048C604.231 85.2832 605.233 82.2931 604.012 79.8395C603.793 79.3998 603.259 79.2207 602.819 79.4397C602.379 79.6587 602.2 80.1927 602.419 80.6324Z" fill="#D9D9D9" fill-opacity="0.8"/>
<path d="M11.8043 293.015C10.5069 290.41 7.33145 289.345 4.7257 290.642C2.11995 291.94 1.05553 295.115 2.35292 297.721C3.65031 300.327 6.82574 301.391 9.43149 300.094C12.0372 298.796 13.1017 295.621 11.8043 293.015ZM3.94541 296.928C3.08522 295.201 3.79095 293.095 5.5186 292.235C7.24624 291.375 9.35159 292.081 10.2118 293.808C11.072 295.536 10.3662 297.641 8.63859 298.501C6.91095 299.362 4.8056 298.656 3.94541 296.928Z" fill="white" fill-opacity="0.8"/>
</svg>
