<svg width="905" height="385" viewBox="0 0 905 385" fill="none" xmlns="http://www.w3.org/2000/svg">
<path d="M196.191 2.60887C173.034 11.4302 125.622 40.3636 46.3768 112.977L28.7872 127.612C23.8843 131.691 19.5039 136.361 15.7455 141.514C-14.429 182.886 3.12598 241.63 51.0531 259.662L134.097 290.907L323.917 375.462C355.36 389.468 391.721 386.842 420.825 368.462L527.707 300.966C535.486 296.053 543.889 292.205 552.69 289.524L852.318 198.254C887.674 187.485 909.549 152.153 903.428 115.703C897.364 79.594 865.667 53.4417 829.064 54.3472L733.672 56.707C724.032 56.9455 714.407 55.8292 705.078 53.3909L524.903 6.29809C502.087 0.334834 477.917 2.38097 456.429 12.0947L387.387 43.3049C359.701 55.8204 327.902 55.4736 300.496 42.3573L224.688 6.07709C215.573 1.71497 205.634 -0.988219 196.191 2.60887Z" fill="url(#paint0_linear_10_64)" fill-opacity="0.1"/>
<defs>
<linearGradient id="paint0_linear_10_64" x1="425.481" y1="-12.9906" x2="493.511" y2="263.164" gradientUnits="userSpaceOnUse">
<stop stop-color="#4200FF"/>
<stop offset="1" stop-color="#1DE3C2" stop-opacity="0.82"/>
</linearGradient>
</defs>
</svg>
