<svg width="822" height="253" viewBox="0 0 822 253" fill="none" xmlns="http://www.w3.org/2000/svg">
<path d="M515.734 44.6667V43.6834C514.519 43.6834 513.397 43.121 512.789 42.2084C512.182 41.2957 512.182 40.171 512.789 39.2584C513.397 38.3457 514.519 37.7834 515.734 37.7834H518C518.626 37.7834 519.134 37.3431 519.134 36.8C519.134 36.257 518.626 35.8167 518 35.8167H515.734C515.433 35.8167 515.145 35.9203 514.932 36.1047C514.72 36.289 514.6 36.5393 514.6 36.8H512.334C512.334 36.0178 512.692 35.267 513.329 34.714C513.967 34.161 514.832 33.8501 515.734 33.8501V32.8667H518V33.8501C519.215 33.8501 520.337 34.4124 520.945 35.3251C521.552 36.2377 521.552 37.3624 520.945 38.2751C520.337 39.1877 519.215 39.7501 518 39.7501H515.734C515.108 39.7501 514.6 40.1904 514.6 40.7334C514.6 41.2764 515.108 41.7168 515.734 41.7168H518C518.626 41.7168 519.134 41.2764 519.134 40.7334H521.4C521.4 41.5157 521.042 42.2664 520.405 42.8194C519.767 43.3725 518.902 43.6834 518 43.6834V44.6667H515.734Z" fill="white" fill-opacity="0.1"/>
<path d="M516.867 25C521.074 25.004 525.107 26.4557 528.081 29.0365C531.056 31.6173 532.729 35.1169 532.734 38.7667C532.734 39.1894 532.706 39.5819 532.668 39.9642L540.608 46.8476H540.608C541.146 47.3195 541.618 47.8441 542.017 48.4103C542.668 48.7554 543.271 49.165 543.814 49.6307L551.747 56.514C552.198 56.4894 552.652 56.4666 553.133 56.4666C557.341 56.4666 561.377 57.917 564.353 60.4987C567.328 63.0805 569 66.5823 569 70.2333C569 73.8843 567.328 77.3861 564.353 79.9679C561.377 82.5496 557.341 84 553.133 84C548.926 84 544.89 82.5496 541.914 79.9679C538.939 77.3861 537.267 73.8843 537.267 70.2333C537.267 69.8145 537.294 69.4212 537.333 69.0358L529.393 62.1524H529.392C528.855 61.6805 528.382 61.1559 527.984 60.5897C527.333 60.2442 526.729 59.8346 526.187 59.3693L518.253 52.4811C517.808 52.5154 517.355 52.5382 516.873 52.5382H516.873C511.203 52.5391 505.964 49.9157 503.128 45.6558C500.292 41.3963 500.291 36.1473 503.125 31.8868C505.959 27.626 511.197 25.0009 516.867 25ZM527.418 52.0872C528.401 50.2505 530.103 48.775 532.22 47.9229L530.22 46.1872H530.22C528.99 47.8637 527.351 49.2856 525.419 50.3527L527.418 52.0872ZM540.214 49.6139C539.88 49.1135 539.471 48.6526 539 48.2435L532.177 42.3237C531.959 43.0265 531.678 43.713 531.334 44.3769L537.391 49.6289C538.107 50.2338 538.619 50.9963 538.872 51.8344C539.294 53.1926 539.022 54.643 538.125 55.8151C537.228 56.9873 535.794 57.7678 534.188 57.9578C534.193 57.9631 534.199 57.9688 534.203 57.9745L536.053 59.5794C538.285 58.8968 540.046 57.3818 540.852 55.4512C541.658 53.5209 541.424 51.3787 540.214 49.6139ZM533.216 56.0399V56.0403C534.175 56.0899 535.111 55.7818 535.791 55.1935C536.47 54.6053 536.826 53.7927 536.771 52.9613C535.811 52.917 534.875 53.2269 534.193 53.8138C533.55 54.363 533.19 55.1141 533.194 55.8968C533.198 55.9429 533.219 55.9929 533.221 56.0403L533.216 56.0399ZM539.777 62.8131L539.777 62.8135C541.006 61.137 542.645 59.7152 544.577 58.648L542.578 56.9135C541.595 58.7503 539.894 60.2253 537.777 61.0778L539.777 62.8131ZM543.517 52.1676L543.517 52.168C543.626 53.057 543.58 53.9556 543.379 54.8327L546.657 57.6773H546.658C547.422 57.3788 548.214 57.1338 549.024 56.9459L543.517 52.1676ZM529.787 59.3867C530.121 59.8872 530.53 60.3481 531.001 60.7572L539.018 67.7134C539.098 67.7823 539.177 67.842 539.286 67.9267H539.286C540.847 69.1712 542.92 69.8174 545.037 69.7191L545.159 71.6858C544.978 71.6928 544.797 71.6976 544.615 71.6976C544.489 71.6976 544.363 71.6866 544.237 71.6827V71.6831C544.657 73.6348 545.913 75.3763 547.751 76.559C549.59 77.7412 551.875 78.2763 554.15 78.0577C556.424 77.8387 558.519 76.8816 560.014 75.3781C561.509 73.875 562.294 71.9369 562.211 69.9527C562.127 67.9685 561.182 66.0852 559.565 64.68C557.948 63.2752 555.779 62.4526 553.492 62.378L553.578 60.4113C556.483 60.5074 559.233 61.568 561.262 63.374C563.291 65.1804 564.442 67.5936 564.478 70.1155C564.514 72.6371 563.432 75.0743 561.456 76.9238C559.479 78.7728 556.759 79.8927 553.859 80.0511C550.958 80.2096 548.098 79.3953 545.869 77.7759C543.641 76.1569 542.214 73.8566 541.885 71.3508C541.069 71.152 540.284 70.8653 539.549 70.497C539.631 73.6094 541.128 76.5674 543.712 78.7263C546.297 80.8853 549.762 82.0701 553.349 82.0222C556.936 81.9748 560.357 80.6983 562.864 78.4717C565.372 76.2447 566.762 73.2482 566.734 70.1352C566.706 67.0223 565.26 64.0452 562.712 61.8533C560.165 59.6614 556.721 58.4323 553.134 58.4335C552.57 58.4318 552.007 58.4621 551.448 58.524C549.875 58.6925 548.349 59.1012 546.94 59.7316C544.649 60.754 542.739 62.3182 541.43 64.2432L542.223 64.9315C542.5 65.176 542.824 65.3757 543.182 65.5215C544.391 63.5979 546.305 62.0794 548.622 61.2066C548.938 61.0872 549.299 61.0995 549.603 61.2391C549.908 61.3787 550.123 61.6307 550.187 61.9244C550.539 63.5223 549.956 65.168 548.631 66.3195C547.306 67.4709 545.411 67.9789 543.568 67.6768C542.445 67.4982 541.413 67.0223 540.614 66.3137L532.609 59.3685C531.896 58.764 531.387 58.0019 531.136 57.1648C530.874 56.3312 530.872 55.4519 531.131 54.6169C531.39 53.7824 531.9 53.0224 532.609 52.4154C533.476 51.6664 534.598 51.1792 535.808 51.026L533.958 49.4211C531.496 50.1691 529.621 51.9277 528.952 54.1156C528.767 54.6955 528.674 55.2947 528.676 55.8966C528.672 57.1261 529.056 58.333 529.787 59.3866L529.787 59.3867ZM545.794 65.6121C546.723 65.3043 547.456 64.6678 547.811 63.8618C547.036 64.3496 546.356 64.94 545.794 65.6121ZM519.777 51.0228L526.471 56.8315C526.428 56.5211 526.404 56.2095 526.399 55.8973C526.405 55.3179 526.478 54.7406 526.619 54.1743L521.388 49.636V49.6365C520.574 48.949 520.025 48.0601 519.814 47.0916C519.744 46.7856 519.709 46.4739 519.711 46.1623C519.715 44.8457 520.326 43.5858 521.406 42.6622C522.488 41.739 523.949 41.2288 525.466 41.2456C525.706 40.6117 525.853 39.9541 525.902 39.2886C525.565 39.2706 525.227 39.2706 524.889 39.2886L524.749 37.3219C525.089 37.303 525.429 37.3101 525.769 37.3219C525.349 35.3702 524.094 33.6283 522.255 32.4456C520.417 31.2633 518.131 30.7278 515.857 30.9464C513.583 31.165 511.488 32.122 509.993 33.6251C508.497 35.1282 507.713 37.0664 507.795 39.0506C507.878 41.0348 508.823 42.918 510.44 44.3233C512.057 45.7285 514.226 46.5511 516.513 46.6262C517.041 46.6437 517.484 46.9756 517.583 47.4256C517.858 48.6864 518.535 49.8554 519.537 50.7996C519.615 50.8733 519.691 50.948 519.777 51.0226L519.777 51.0228ZM522.207 45.1179C522.958 44.6429 523.62 44.0701 524.169 43.4195C523.724 43.5648 523.318 43.7896 522.978 44.0793C522.638 44.3734 522.375 44.7276 522.207 45.1179ZM516.54 50.5539C516.116 49.9187 515.784 49.2404 515.554 48.5341C512.671 48.2443 510.027 47.0064 508.165 45.0749C506.303 43.1437 505.366 40.6665 505.547 38.1533C505.727 35.6406 507.012 33.2836 509.136 31.568C511.26 29.8524 514.062 28.9095 516.964 28.9328C519.865 28.9565 522.646 29.9447 524.733 31.6944C526.82 33.4438 528.053 35.8214 528.18 38.3367C528.201 38.4724 528.201 38.6199 528.201 38.7674C528.203 40.5325 527.657 42.2657 526.62 43.7842C525.583 45.3027 524.093 46.5507 522.307 47.3962C522.474 47.7105 522.705 47.9963 522.987 48.24L523.781 48.9283C526 47.7904 527.803 46.1319 528.981 44.1433C529.709 42.9194 530.18 41.5933 530.373 40.2266C530.441 39.7424 530.473 39.2551 530.467 38.7675C530.47 35.6533 529.055 32.6646 526.529 30.4526C524.003 28.24 520.572 26.9842 516.983 26.9573C513.394 26.931 509.939 28.1364 507.37 30.3108C504.801 32.4856 503.327 35.4531 503.27 38.5669C503.211 41.6802 504.574 44.6877 507.061 46.9326C509.548 49.178 512.956 50.4796 516.545 50.5539L516.54 50.5539Z" fill="white" fill-opacity="0.1"/>
<path d="M554.267 67.2834H552C551.7 67.2834 551.411 67.387 551.199 67.5714C550.986 67.7558 550.867 68.006 550.867 68.2667H548.6C548.6 67.4845 548.958 66.7338 549.596 66.1807C550.233 65.6277 551.099 65.3168 552 65.3168V64.3335H554.267V65.3168C555.481 65.3168 556.604 65.8791 557.211 66.7918C557.818 67.7045 557.818 68.8292 557.211 69.7418C556.604 70.6545 555.481 71.2168 554.267 71.2168H552C551.374 71.2168 550.867 71.6571 550.867 72.2001C550.867 72.7432 551.374 73.1835 552 73.1835H554.267C554.893 73.1835 555.4 72.7432 555.4 72.2001H557.667C557.667 72.9824 557.308 73.7331 556.671 74.2862C556.033 74.8392 555.168 75.1501 554.267 75.1501V76.1334H552V75.1501C550.785 75.1501 549.663 74.5877 549.056 73.6751C548.448 72.7624 548.448 71.6377 549.056 70.7251C549.663 69.8124 550.785 69.2501 552 69.2501H554.267C554.893 69.2501 555.4 68.8098 555.4 68.2667C555.4 67.7237 554.893 67.2834 554.267 67.2834Z" fill="white" fill-opacity="0.1"/>
<path d="M142 252.5C134.029 252.5 127.501 245.976 127.5 237.927C127.574 229.947 134.029 223.427 142.07 223.5C150.045 223.572 156.499 230.022 156.5 238.147C156.426 246.048 149.974 252.5 142 252.5Z" stroke="white"/>
<path fill-rule="evenodd" clip-rule="evenodd" d="M143.425 236.2L142.975 238.6L147.25 239.2L146.95 240.325L142.75 239.725C142.45 240.7 142.3 241.75 141.925 242.65C141.55 243.7 141.175 244.75 140.725 245.725C140.125 247 139.075 247.9 137.65 248.125C136.825 248.275 135.925 248.2 135.25 247.675C135.025 247.525 134.8 247.225 134.8 247C134.8 246.7 134.95 246.325 135.175 246.175C135.325 246.1 135.7 246.175 135.925 246.25C136.15 246.475 136.375 246.775 136.525 247.075C136.975 247.675 137.575 247.75 138.175 247.3C138.85 246.7 139.225 245.875 139.45 245.05C139.9 243.25 140.35 241.525 140.725 239.725V239.425L136.75 238.825L136.9 237.7L141.025 238.3L141.55 235.975L137.275 235.3L137.425 234.1L141.85 234.7C142 234.25 142.075 233.875 142.225 233.5C142.6 232.15 142.975 230.8 143.875 229.6C144.775 228.4 145.825 227.65 147.4 227.725C148.075 227.725 148.75 227.95 149.2 228.475C149.275 228.55 149.425 228.7 149.425 228.85C149.425 229.15 149.425 229.525 149.2 229.75C148.9 229.975 148.525 229.9 148.225 229.6C148 229.375 147.85 229.15 147.625 228.925C147.175 228.325 146.5 228.25 145.975 228.775C145.6 229.15 145.225 229.675 145 230.2C144.475 231.775 144.1 233.425 143.575 235.075L147.7 235.675L147.4 236.8L143.425 236.2Z" fill="white"/>
<g opacity="0.3">
<path d="M793.275 187.095L804.934 187.184C805.431 187.162 805.837 187.343 806.356 187.819L814.203 196.441C814.834 197.21 816.101 196.557 815.854 195.472L811.23 178.541C810.984 177.456 809.764 176.912 808.792 177.453L793.098 185.31C791.922 185.76 792.281 187.138 793.275 187.095ZM788.013 198.88L795.86 207.502C796.175 207.886 796.582 208.068 797.282 208.137L808.94 208.226C809.935 208.182 810.294 209.561 809.321 210.102L793.627 217.959C792.654 218.499 791.435 217.955 791.189 216.87L786.565 199.939C786.115 198.763 787.381 198.11 788.013 198.88ZM803.365 192.332L790.441 192.897L798.647 202.898L811.572 202.333L803.365 192.332Z" stroke="white" stroke-width="1.5" stroke-miterlimit="10" stroke-linecap="round" stroke-linejoin="round"/>
</g>
<g opacity="0.2">
<path d="M6.18408 2.73703L8.12969 7.62397M5.02143 4.00717L3.27036 9.72005C2.87273 11.0193 3.6545 12.1718 5.00062 12.2817L9.15777 12.6394C9.70179 12.6812 10.445 12.3852 10.8115 11.981L13.5853 8.86396C14.4838 7.84966 14.2595 6.47515 13.0814 5.81402L7.89227 2.86421C6.71607 2.18081 5.41536 2.69865 5.02143 4.00717Z" stroke="white" stroke-width="1.5" stroke-miterlimit="10" stroke-linecap="round" stroke-linejoin="round"/>
<path d="M5.39272 12.1041L8.12969 7.62399L13.197 8.99704M7.66991 15.2015L9.43204 15.2749C9.99144 15.297 10.5493 15.2014 11.0694 14.9943C11.5895 14.7872 12.0604 14.4733 12.4515 14.0728L13.681 12.8083C14.7822 11.6811 16.6614 12.8057 16.1836 14.3091L14.5337 19.5189C14.1286 20.7995 12.8372 21.3136 11.6535 20.6655L6.88359 18.0116C5.49395 17.2518 6.08602 15.1432 7.66991 15.2015Z" stroke="white" stroke-width="1.5" stroke-miterlimit="10" stroke-linecap="round" stroke-linejoin="round"/>
</g>
</svg>
